<svg xmlns="http://www.w3.org/2000/svg" xmlns:xlink="http://www.w3.org/1999/xlink" viewBox="0 0 148 16"><defs><path id="a" d="M0 0h148v16H0z"/></defs><clipPath id="b"><use xlink:href="#a" overflow="visible"/></clipPath><path clip-path="url(#b)" fill="none" stroke="#fff" stroke-miterlimit="10" d="M0 0l15.5 16"/><defs><path id="c" d="M0 0h148v16H0z"/></defs><clipPath id="d"><use xlink:href="#c" overflow="visible"/></clipPath><path clip-path="url(#d)" fill="none" stroke="#fff" stroke-miterlimit="10" d="M-7.2 0L8.3 16"/><defs><path id="e" d="M0 0h148v16H0z"/></defs><clipPath id="f"><use xlink:href="#e" overflow="visible"/></clipPath><path clip-path="url(#f)" fill="none" stroke="#fff" stroke-miterlimit="10" d="M7.3 0l15.5 16"/><defs><path id="g" d="M0 0h148v16H0z"/></defs><clipPath id="h"><use xlink:href="#g" overflow="visible"/></clipPath><path clip-path="url(#h)" fill="none" stroke="#fff" stroke-miterlimit="10" d="M14.5 0L30 16"/><defs><path id="i" d="M0 0h148v16H0z"/></defs><clipPath id="j"><use xlink:href="#i" overflow="visible"/></clipPath><path clip-path="url(#j)" fill="none" stroke="#fff" stroke-miterlimit="10" d="M21.8 0l15.5 16"/><defs><path id="k" d="M0 0h148v16H0z"/></defs><clipPath id="l"><use xlink:href="#k" overflow="visible"/></clipPath><path clip-path="url(#l)" fill="none" stroke="#fff" stroke-miterlimit="10" d="M29.1 0l15.5 16"/><defs><path id="m" d="M0 0h148v16H0z"/></defs><clipPath id="n"><use xlink:href="#m" overflow="visible"/></clipPath><path clip-path="url(#n)" fill="none" stroke="#fff" stroke-miterlimit="10" d="M36.4 0l15.5 16"/><defs><path id="o" d="M0 0h148v16H0z"/></defs><clipPath id="p"><use xlink:href="#o" overflow="visible"/></clipPath><path clip-path="url(#p)" fill="none" stroke="#fff" stroke-miterlimit="10" d="M43.7 0l15.5 16"/><g><defs><path id="q" d="M0 0h148v16H0z"/></defs><clipPath id="r"><use xlink:href="#q" overflow="visible"/></clipPath><path clip-path="url(#r)" fill="none" stroke="#fff" stroke-miterlimit="10" d="M51 0l15.5 16"/></g><g><defs><path id="s" d="M0 0h148v16H0z"/></defs><clipPath id="t"><use xlink:href="#s" overflow="visible"/></clipPath><path clip-path="url(#t)" fill="none" stroke="#fff" stroke-miterlimit="10" d="M58.2 0l15.5 16"/></g><g><defs><path id="u" d="M0 0h148v16H0z"/></defs><clipPath id="v"><use xlink:href="#u" overflow="visible"/></clipPath><path clip-path="url(#v)" fill="none" stroke="#fff" stroke-miterlimit="10" d="M65.5 0L81 16"/></g><g><defs><path id="w" d="M0 0h148v16H0z"/></defs><clipPath id="x"><use xlink:href="#w" overflow="visible"/></clipPath><path clip-path="url(#x)" fill="none" stroke="#fff" stroke-miterlimit="10" d="M72.8 0l15.5 16"/></g><g><defs><path id="y" d="M0 0h148v16H0z"/></defs><clipPath id="z"><use xlink:href="#y" overflow="visible"/></clipPath><path clip-path="url(#z)" fill="none" stroke="#fff" stroke-miterlimit="10" d="M80.1 0l15.5 16"/></g><g><defs><path id="A" d="M0 0h148v16H0z"/></defs><clipPath id="B"><use xlink:href="#A" overflow="visible"/></clipPath><path clip-path="url(#B)" fill="none" stroke="#fff" stroke-miterlimit="10" d="M87.4 0l15.5 16"/></g><g><defs><path id="C" d="M0 0h148v16H0z"/></defs><clipPath id="D"><use xlink:href="#C" overflow="visible"/></clipPath><path clip-path="url(#D)" fill="none" stroke="#fff" stroke-miterlimit="10" d="M94.7 0l15.5 16"/></g><g><defs><path id="E" d="M0 0h148v16H0z"/></defs><clipPath id="F"><use xlink:href="#E" overflow="visible"/></clipPath><path clip-path="url(#F)" fill="none" stroke="#fff" stroke-miterlimit="10" d="M101.9 0l15.5 16"/></g><g><defs><path id="G" d="M0 0h148v16H0z"/></defs><clipPath id="H"><use xlink:href="#G" overflow="visible"/></clipPath><path clip-path="url(#H)" fill="none" stroke="#fff" stroke-miterlimit="10" d="M109.2 0l15.5 16"/></g><g><defs><path id="I" d="M0 0h148v16H0z"/></defs><clipPath id="J"><use xlink:href="#I" overflow="visible"/></clipPath><path clip-path="url(#J)" fill="none" stroke="#fff" stroke-miterlimit="10" d="M116.5 0L132 16"/></g><g><defs><path id="K" d="M0 0h148v16H0z"/></defs><clipPath id="L"><use xlink:href="#K" overflow="visible"/></clipPath><path clip-path="url(#L)" fill="none" stroke="#fff" stroke-miterlimit="10" d="M123.8 0l15.5 16"/></g><g><defs><path id="M" d="M0 0h148v16H0z"/></defs><clipPath id="N"><use xlink:href="#M" overflow="visible"/></clipPath><path clip-path="url(#N)" fill="none" stroke="#fff" stroke-miterlimit="10" d="M131.1 0l15.5 16"/></g><g><defs><path id="O" d="M0 0h148v16H0z"/></defs><clipPath id="P"><use xlink:href="#O" overflow="visible"/></clipPath><path clip-path="url(#P)" fill="none" stroke="#fff" stroke-miterlimit="10" d="M138.4 0l15.5 16"/></g><g><defs><path id="Q" d="M0 0h148v16H0z"/></defs><clipPath id="R"><use xlink:href="#Q" overflow="visible"/></clipPath><path clip-path="url(#R)" fill="none" stroke="#fff" stroke-miterlimit="10" d="M145.7 0l15.5 16"/></g><path opacity=".7" fill="#fff" d="M0 0h148v16H0z"/></svg>